<svg viewBox="0 0 400 300" fill="none" xmlns="http://www.w3.org/2000/svg"><path opacity=".27" d="M191.27 270.155c67.002 0 121.318-54.316 121.318-121.318S258.272 27.519 191.27 27.519 69.952 81.835 69.952 148.837s54.316 121.318 121.318 121.318Z" fill="#D6DCED"/><path d="M133.403 158.7H100.77a11.94 11.94 0 0 0-12.056 11.777v86.117a11.946 11.946 0 0 0 12.056 11.811h125.435a11.944 11.944 0 0 0 4.578-.859 11.946 11.946 0 0 0 6.528-6.393 11.93 11.93 0 0 0 .955-4.559v-86.117a11.902 11.902 0 0 0-7.487-10.927 11.9 11.9 0 0 0-4.574-.85h-92.802Z" fill="#5578EC" stroke="#31333A" stroke-linecap="round" stroke-linejoin="round"/><path d="M212.355 158.696v-31.461c0-26.342-21.902-47.744-48.865-47.744-26.936 0-48.871 21.43-48.871 47.749v31.461h18.784V128.02c0-16.239 13.522-29.445 30.136-29.445 16.619 0 30.114 13.206 30.114 29.445l-.027 30.67v.011h32.579v-.006l-13.85.001Z" fill="#3351E5"/><path d="M170.288 215.788v18.795a1.582 1.582 0 0 1-1.585 1.549h-10.378a1.58 1.58 0 0 1-1.581-1.549v-18.795a14.605 14.605 0 0 1-8.26-13.032 15.034 15.034 0 0 1 30.06-.006 14.6 14.6 0 0 1-8.256 13.038Z" fill="#fff"/><path d="M170.288 215.788v18.795a1.582 1.582 0 0 1-1.585 1.549h-10.378a1.58 1.58 0 0 1-1.581-1.549v-18.795a14.605 14.605 0 0 1-8.26-13.032 15.034 15.034 0 0 1 30.06-.006 14.6 14.6 0 0 1-8.256 13.038v0Z" stroke="#31333A" stroke-linecap="round" stroke-linejoin="round"/><path d="m262.919 222.229 4.35 46.898 11.353-3.1 1.925-28.3-17.628-15.498Z" fill="#fff"/><path d="M288.312 253.396c-9.624 3.447-21.083-6.679-21.083-6.679l9.495-5.693 10.982 3.313-.04 1.892" fill="#DCDDDD"/><path d="m262.919 222.229 4.35 46.898 11.353-3.1 1.925-28.3-17.628-15.498Z" stroke="#31333A" stroke-linecap="round" stroke-linejoin="round"/><path d="m265.968 259.694.782 12.787 32.547-.044c1.857-11.488-15.961-1.928-19.755-15.208 0 0-11.074 2.378-13.574 2.465Z" fill="#31333A"/><path d="M258.575 276.861h45.317l1.191-5.945h-45.316l-1.192 5.945Z" fill="#fff" stroke="#31333A" stroke-linecap="round" stroke-linejoin="round"/><path d="m282.146 258.807-2.811 2.249M283.032 260.278l-2.812 2.25M284.456 261.403l-2.812 2.25" stroke="#31333A" stroke-linecap="round" stroke-linejoin="round"/><path d="M274.503 266.342c1.339-.949 1.795-2.605 1.02-3.7-.776-1.095-2.49-1.214-3.829-.266-1.339.949-1.796 2.605-1.02 3.7.775 1.095 2.49 1.214 3.829.266Z" fill="#fff" stroke="#31333A" stroke-linecap="round" stroke-linejoin="round"/><path d="M260.417 244.727s28.317 8.558 29.101 3.227L281.53 110.99l-23.132 4.718-1.666 44.876 3.685 84.143Z" fill="#fff"/><path d="M267.815 137.357c-.477 24.44-10.884 73.652-14.242 108.32-3.357 34.669-14.002-55.31-14.002-55.31l16.824-48.097" fill="#DCDDDD"/><path d="M258.06 238.529c14.035 7.247 31.831 4.404 31.923 3.945l-31.923-3.945Z" fill="#fff"/><path d="M258.06 238.529c14.035 7.247 31.831 4.404 31.923 3.945" stroke="#31333A" stroke-linecap="round" stroke-linejoin="round"/><path d="M260.417 244.727s28.317 8.558 29.101 3.227L281.53 110.99l-23.132 4.718-1.666 44.876 3.685 84.143Z" stroke="#31333A" stroke-linecap="round" stroke-linejoin="round"/><path d="m293.421 62.955 17.952-8.706s19.852 8.665 16.813 14.478c-3.04 5.814-29.547 14.479-29.547 14.479l-5.218-20.25Z" fill="#fff"/><path d="M317.124 81.413c-2.115-10.1-14.239-18.764-14.239-18.764l1.153 16.764-1.573 13.078" fill="#DCDDDD"/><path d="m293.421 62.955 17.952-8.706s19.852 8.665 16.813 14.478c-3.04 5.814-29.547 14.479-29.547 14.479l-5.218-20.25Z" stroke="#31333A" stroke-linecap="round" stroke-linejoin="round"/><path d="M302.518 58.188s11.624 19.915 8.388 22.753c0 0-34.102 11.558-28.87 8.836l-4.341-27.412s14.959-1.085 24.823-4.178Z" fill="#B5B5B6"/><path d="M302.518 58.188s11.624 19.915 8.388 22.753c0 0-34.102 11.558-28.87 8.836l-4.341-27.412s14.959-1.085 24.823-4.178Z" stroke="#31333A" stroke-linecap="round" stroke-linejoin="round"/><path d="m243.153 219.56-15.567 48.938-10.611-3.235 4.842-29.531 21.336-16.172Z" fill="#fff"/><path d="M214.914 252.115c8.799 3.597 20.362-3.67 20.362-3.67l-8.133-5.94-11.775 3.456-.412 1.975" fill="#DCDDDD"/><path d="m243.153 219.56-15.567 48.938-10.611-3.235 4.842-29.531 21.336-16.172Z" stroke="#31333A" stroke-linecap="round" stroke-linejoin="round"/><path d="m231.143 258.655-3.841 13.343-32.536-.046c.89-11.987 16.422-2.012 23.392-15.87 0 0 10.506 2.482 12.985 2.573Z" fill="#31333A"/><path d="M234.43 276.569h-45.317l.231-6.204h45.316l-.23 6.204Z" fill="#fff" stroke="#31333A" stroke-linecap="round" stroke-linejoin="round"/><path d="m215.177 257.729 2.273 2.347M213.94 259.265l2.273 2.347M212.246 260.438l2.274 2.348" stroke="#31333A" stroke-linecap="round" stroke-linejoin="round"/><path d="M224.638 265.578c1.178-.999 1.354-2.728.392-3.863-.962-1.135-2.696-1.246-3.875-.247-1.178.998-1.353 2.727-.392 3.862.962 1.135 2.697 1.246 3.875.248Z" fill="#fff" stroke="#31333A" stroke-linecap="round" stroke-linejoin="round"/><path d="m241.886 60.468-23.514-6.173s-16.851 13.971-8.944 18.82a59.66 59.66 0 0 0 23.532 7.826l8.926-20.473Z" fill="#fff"/><path d="M234.571 58.697c-11.867 8.877-17.117 18.24-17.117 18.24l8.304 8.28" fill="#DCDDDD"/><path d="m241.886 60.468-23.514-6.173s-16.851 13.971-8.944 18.82a59.66 59.66 0 0 0 23.532 7.826l8.926-20.473Z" stroke="#31333A" stroke-linecap="round" stroke-linejoin="round"/><path d="m275.256 109.302-.354-1.77s-13.968-2.599-25.866-.298c-3.741.723-3.282.999-7.66 19.867-.763 3.29-1.687 7.211-2.824 11.89-9.748 40.116-28.05 105.148-28.05 105.148s9.945 7.566 30.44 5.291l25.936-105.916" fill="#fff"/><path d="M235.153 117.148c22.968 6.021 37.767-4.197 37.767-4.197l-31.863-6.569" fill="#DCDDDD"/><path d="M216.975 239.053c.439-1.824 36.014-132.142 36.014-132.142l-36.014 132.142Z" fill="#fff"/><path d="M216.975 239.053c.439-1.824 36.014-132.142 36.014-132.142M248.948 126.089c9.93 2.676 9.45-10.381 9.45-10.381" stroke="#31333A" stroke-linecap="round" stroke-linejoin="round"/><path d="M210.502 234.951c17.745 13.026 38.476 4.954 38.476 4.954l-38.476-4.954Z" fill="#fff"/><path d="M210.502 234.951c17.745 13.026 38.476 4.954 38.476 4.954" stroke="#31333A" stroke-linecap="round" stroke-linejoin="round"/><path d="m275.256 109.302-.354-1.77s-13.968-2.599-25.866-.298c-3.741.723-3.282.999-7.66 19.867-.763 3.29-1.687 7.211-2.824 11.89-9.748 40.116-28.05 105.148-28.05 105.148s9.945 7.566 30.44 5.291l25.936-105.916" stroke="#31333A" stroke-linecap="round" stroke-linejoin="round"/><path d="M281.94 62.54s-35.291-4.366-35.936-.42c-2.165 13.243 1.282 28.495-4.021 48.641 0 0 26.342 10.548 39.968.47 0 0 5.841-19.16 5.755-33.625" fill="#B5B5B6"/><path d="M275.146 66.58c1.448-2.562-1.376-6.899-6.309-9.688-4.932-2.788-10.104-2.972-11.553-.41-1.448 2.561 1.376 6.899 6.309 9.687 4.932 2.789 10.104 2.973 11.553.41Z" fill="#fff" stroke="#31333A" stroke-linecap="round" stroke-linejoin="round"/><path d="m234.097 94.974 17.946-2.825-10.157-6.066" fill="#31333A"/><path d="M281.94 62.54s-35.291-4.366-35.936-.42c-2.165 13.243 1.282 28.495-4.021 48.641 0 0 26.342 10.548 39.968.47 0 0 5.841-19.16 5.755-33.625" stroke="#31333A" stroke-linecap="round" stroke-linejoin="round"/><path d="M251.736 60.528s-14.904-2.559-18.77-2.963c0 0-12.2 16.703-10.18 24.015 0 0 25.188 9.36 29.256 10.57" fill="#B5B5B6"/><path d="M251.736 60.528s-14.904-2.559-18.77-2.963c0 0-12.2 16.703-10.18 24.015 0 0 25.188 9.36 29.256 10.57" stroke="#31333A" stroke-linecap="round" stroke-linejoin="round"/><path d="m227.182 58.188 16.781-14.509s5.054-.393 6.532-1.18c1.478-.785 8.216-7.526 8.216-7.526s-.066-1.629-1.617-.562c0 0 2.15-1.91.984-2.752 0 0-15.494 7.302-17.01 7.976-1.034.46-20.315 9.44-31.311 17.035-12.524 8.651-.33 16.446-.33 16.446" fill="#fff"/><path d="m227.182 58.188 16.781-14.509s5.054-.393 6.532-1.18c1.478-.785 8.216-7.526 8.216-7.526s-.066-1.629-1.617-.562c0 0 2.15-1.91.984-2.752 0 0-15.494 7.302-17.01 7.976-1.034.46-20.315 9.44-31.311 17.035-12.524 8.651-.33 16.446-.33 16.446" stroke="#31333A" stroke-linecap="round" stroke-linejoin="round"/><path d="m305.645 59.667-19.536-14.255s-5.604-.362-7.192-1.086c-1.588-.723-8.591-6.925-8.591-6.925s.197-1.499 1.845-.517c0 0-2.252-1.757-.889-2.532 0 0 16.72 6.718 18.359 7.339 1.153.436 20.917 9.495 32.472 14.964 13.784 6.523 4.179 14.164 4.179 14.164" fill="#fff"/><path d="M277.027 36.164c2.89 3.47 3.095 10.319 2.66 14.603-.435 4.285-6.509-2.684-6.509-2.684" fill="#DCDDDD"/><path d="m305.645 59.667-19.536-14.255s-5.604-.362-7.192-1.086c-1.588-.723-8.591-6.925-8.591-6.925s.197-1.499 1.845-.517c0 0-2.252-1.757-.889-2.532 0 0 16.72 6.718 18.359 7.339 1.153.436 20.917 9.495 32.472 14.964 13.784 6.523 4.179 14.164 4.179 14.164" stroke="#31333A" stroke-linecap="round" stroke-linejoin="round"/><path d="m262 56.512-5.51-12.503a6.17 6.17 0 0 1 2.546-7.642 6.17 6.17 0 0 1 2.768-.86l9.967-.684a5.434 5.434 0 0 1 3.27.766c2.379 1.495 5.725 5.133.704 12.503-7.089 10.405-13.745 8.42-13.745 8.42Z" fill="#31333A" stroke="#31333A" stroke-linecap="round" stroke-linejoin="round"/><path d="m272.737 62.302-.409-14.004-9.502 1.868-2.048 11.186" fill="#fff"/><path d="M265.534 51.622c-.782 1.805 8.479 11.981 8.326 6.092-.067-2.618 2.678-3.684 2.678-3.684l-1.642-4.715-9.362 2.307Z" fill="#DCDDDD"/><path d="m272.737 62.302-.409-14.004-9.502 1.868-2.048 11.186" stroke="#31333A" stroke-linecap="round" stroke-linejoin="round"/><path d="M265.06 51.406a1.527 1.527 0 0 0 .203 1.828c.81.87 9.754 1.897 10.978-.379 2.144-3.984-.236-13.541-3.822-15.152-3.587-1.61-8.59 5.189-8.59 5.189l1.231 8.514Z" fill="#fff"/><path d="M265.06 51.406a1.527 1.527 0 0 0 .203 1.828c.81.87 9.754 1.897 10.978-.379 2.144-3.984-.236-13.541-3.822-15.152-3.587-1.61-8.59 5.189-8.59 5.189l1.231 8.514Z" stroke="#31333A" stroke-linecap="round" stroke-linejoin="round"/><path d="m272.865 37.95-1.446-1.056-10.131.562-2.118 5.664 2.527 12.323" fill="#31333A"/><path d="m272.865 37.95-1.446-1.056-10.131.562-2.118 5.664 2.527 12.323" stroke="#31333A" stroke-linecap="round" stroke-linejoin="round"/><path d="M273.088 36.802c2.932 9.724-10.326 12.692-10.326 12.692l-1.065 5.95" fill="#31333A"/><path d="M273.088 36.802c2.932 9.724-10.326 12.692-10.326 12.692l-1.065 5.95" stroke="#31333A" stroke-linecap="round" stroke-linejoin="round"/><path d="M267.248 48.178c-5.204-4.657-7.906 2.75-1.59 3.279l1.59-3.279Z" fill="#fff"/><path d="M267.248 48.178c-5.204-4.657-7.906 2.75-1.59 3.279" stroke="#31333A" stroke-linecap="round" stroke-linejoin="round"/><path d="M274.014 44.023c-.007.103.752 2.252.752 2.252 2.309.339-.008 1.675-.008 1.675" fill="#fff"/><path d="M274.014 44.023c-.007.103.752 2.252.752 2.252 2.309.339-.008 1.675-.008 1.675" stroke="#31333A" stroke-linecap="round" stroke-linejoin="round"/><path d="M276.042 45.414a.596.596 0 0 0 .462-.68l-.099-.534a.546.546 0 0 0-.241-.36.558.558 0 0 0-.428-.074.593.593 0 0 0-.462.681l.099.533a.564.564 0 0 0 .242.36.543.543 0 0 0 .427.074Z" fill="#31333A"/><path d="M277.324 42.451a8.73 8.73 0 0 0-2.729.495l2.729-.495Z" fill="#fff"/><path d="M277.324 42.451a8.73 8.73 0 0 0-2.729.495" stroke="#31333A" stroke-linecap="round" stroke-linejoin="round"/><path d="M272.394 45.95a.596.596 0 0 0 .462-.682l-.099-.533a.547.547 0 0 0-.447-.44.593.593 0 0 0-.684.688l.099.532a.563.563 0 0 0 .242.36.545.545 0 0 0 .427.074Z" fill="#31333A"/><path d="M272.779 42.99a5.334 5.334 0 0 0-2.729.494l2.729-.495Z" fill="#fff"/><path d="M272.779 42.99a5.334 5.334 0 0 0-2.729.494" stroke="#31333A" stroke-linecap="round" stroke-linejoin="round"/><path d="m274.624 48.946-3.787-.997c-1.791 3.745 3.683 4.486 3.787.997Z" fill="#B5B5B6"/><path d="m263.634 48.147 2.236 1.134M263.941 49.506l.553-.793M305.645 59.666l-2.027-1.478M307.671 61.146l-2.026-1.479M252.881 36.801l4.213-2.39" stroke="#31333A" stroke-linecap="round" stroke-linejoin="round"/><path d="M170.412 64.314a5.387 5.387 0 1 0-.001-10.773 5.387 5.387 0 0 0 .001 10.773ZM299.751 194.141l9.089-3.313M295.206 202.11l9.09-3.313" stroke="#3351E5" stroke-width="2" stroke-linecap="round" stroke-linejoin="round"/></svg>